<mxfile host="app.diagrams.net" modified="2022-09-18T02:42:08.695Z" agent="5.0 (Windows NT 10.0; Win64; x64) AppleWebKit/537.36 (KHTML, like Gecko) Chrome/105.0.0.0 Safari/537.36" etag="7Fruu9LrqfY8gCws7act" version="20.3.2" type="github">
  <diagram id="pMQics5iFA8CGOrrMXiw" name="Página-1">
    <mxGraphModel dx="766" dy="450" grid="1" gridSize="10" guides="1" tooltips="1" connect="1" arrows="1" fold="1" page="1" pageScale="1" pageWidth="827" pageHeight="1169" math="0" shadow="0">
      <root>
        <mxCell id="0" />
        <mxCell id="1" parent="0" />
        <mxCell id="wteRJV7HcXGWu6liqBL--24" style="edgeStyle=orthogonalEdgeStyle;rounded=0;orthogonalLoop=1;jettySize=auto;html=1;" edge="1" parent="1" source="wteRJV7HcXGWu6liqBL--1" target="wteRJV7HcXGWu6liqBL--23">
          <mxGeometry relative="1" as="geometry">
            <Array as="points">
              <mxPoint x="330" y="205" />
            </Array>
          </mxGeometry>
        </mxCell>
        <mxCell id="wteRJV7HcXGWu6liqBL--1" value="Pessoa" style="rounded=0;whiteSpace=wrap;html=1;" vertex="1" parent="1">
          <mxGeometry x="20" y="190" width="120" height="30" as="geometry" />
        </mxCell>
        <mxCell id="wteRJV7HcXGWu6liqBL--25" style="edgeStyle=orthogonalEdgeStyle;rounded=0;orthogonalLoop=1;jettySize=auto;html=1;entryX=1;entryY=0.5;entryDx=0;entryDy=0;" edge="1" parent="1" source="wteRJV7HcXGWu6liqBL--2" target="wteRJV7HcXGWu6liqBL--23">
          <mxGeometry relative="1" as="geometry">
            <Array as="points">
              <mxPoint x="360" y="315" />
            </Array>
          </mxGeometry>
        </mxCell>
        <mxCell id="wteRJV7HcXGWu6liqBL--2" value="Banco" style="rounded=0;whiteSpace=wrap;html=1;" vertex="1" parent="1">
          <mxGeometry x="310" y="100" width="120" height="30" as="geometry" />
        </mxCell>
        <mxCell id="wteRJV7HcXGWu6liqBL--26" style="edgeStyle=orthogonalEdgeStyle;rounded=0;orthogonalLoop=1;jettySize=auto;html=1;" edge="1" parent="1" source="wteRJV7HcXGWu6liqBL--3">
          <mxGeometry relative="1" as="geometry">
            <mxPoint x="370" y="310" as="targetPoint" />
            <Array as="points">
              <mxPoint x="570" y="310" />
              <mxPoint x="363" y="310" />
            </Array>
          </mxGeometry>
        </mxCell>
        <mxCell id="wteRJV7HcXGWu6liqBL--3" value="Companhia" style="rounded=0;whiteSpace=wrap;html=1;" vertex="1" parent="1">
          <mxGeometry x="550" y="230" width="120" height="30" as="geometry" />
        </mxCell>
        <mxCell id="wteRJV7HcXGWu6liqBL--12" style="edgeStyle=orthogonalEdgeStyle;rounded=0;orthogonalLoop=1;jettySize=auto;html=1;entryX=0.5;entryY=0;entryDx=0;entryDy=0;" edge="1" parent="1" source="wteRJV7HcXGWu6liqBL--7" target="wteRJV7HcXGWu6liqBL--1">
          <mxGeometry relative="1" as="geometry" />
        </mxCell>
        <mxCell id="wteRJV7HcXGWu6liqBL--7" value="CPF" style="ellipse;whiteSpace=wrap;html=1;" vertex="1" parent="1">
          <mxGeometry x="10" y="120" width="80" height="30" as="geometry" />
        </mxCell>
        <mxCell id="wteRJV7HcXGWu6liqBL--13" style="edgeStyle=orthogonalEdgeStyle;rounded=0;orthogonalLoop=1;jettySize=auto;html=1;entryX=0.75;entryY=0;entryDx=0;entryDy=0;" edge="1" parent="1" source="wteRJV7HcXGWu6liqBL--8" target="wteRJV7HcXGWu6liqBL--1">
          <mxGeometry relative="1" as="geometry" />
        </mxCell>
        <mxCell id="wteRJV7HcXGWu6liqBL--8" value="Nome" style="ellipse;whiteSpace=wrap;html=1;" vertex="1" parent="1">
          <mxGeometry x="130" y="120" width="80" height="30" as="geometry" />
        </mxCell>
        <mxCell id="wteRJV7HcXGWu6liqBL--16" style="edgeStyle=orthogonalEdgeStyle;rounded=0;orthogonalLoop=1;jettySize=auto;html=1;entryX=0.808;entryY=1;entryDx=0;entryDy=0;entryPerimeter=0;" edge="1" parent="1" source="wteRJV7HcXGWu6liqBL--9" target="wteRJV7HcXGWu6liqBL--1">
          <mxGeometry relative="1" as="geometry" />
        </mxCell>
        <mxCell id="wteRJV7HcXGWu6liqBL--9" value="Endereço" style="ellipse;whiteSpace=wrap;html=1;" vertex="1" parent="1">
          <mxGeometry x="150" y="240" width="80" height="30" as="geometry" />
        </mxCell>
        <mxCell id="wteRJV7HcXGWu6liqBL--11" style="edgeStyle=orthogonalEdgeStyle;rounded=0;orthogonalLoop=1;jettySize=auto;html=1;entryX=0.5;entryY=1;entryDx=0;entryDy=0;" edge="1" parent="1" source="wteRJV7HcXGWu6liqBL--10" target="wteRJV7HcXGWu6liqBL--1">
          <mxGeometry relative="1" as="geometry" />
        </mxCell>
        <mxCell id="wteRJV7HcXGWu6liqBL--10" value="Licença" style="ellipse;whiteSpace=wrap;html=1;" vertex="1" parent="1">
          <mxGeometry x="30" y="260" width="80" height="30" as="geometry" />
        </mxCell>
        <mxCell id="wteRJV7HcXGWu6liqBL--19" style="edgeStyle=orthogonalEdgeStyle;rounded=0;orthogonalLoop=1;jettySize=auto;html=1;" edge="1" parent="1" source="wteRJV7HcXGWu6liqBL--17" target="wteRJV7HcXGWu6liqBL--2">
          <mxGeometry relative="1" as="geometry" />
        </mxCell>
        <mxCell id="wteRJV7HcXGWu6liqBL--17" value="Bnome" style="ellipse;whiteSpace=wrap;html=1;" vertex="1" parent="1">
          <mxGeometry x="280" y="20" width="80" height="30" as="geometry" />
        </mxCell>
        <mxCell id="wteRJV7HcXGWu6liqBL--20" style="edgeStyle=orthogonalEdgeStyle;rounded=0;orthogonalLoop=1;jettySize=auto;html=1;entryX=0.892;entryY=0.033;entryDx=0;entryDy=0;entryPerimeter=0;" edge="1" parent="1" source="wteRJV7HcXGWu6liqBL--18" target="wteRJV7HcXGWu6liqBL--2">
          <mxGeometry relative="1" as="geometry" />
        </mxCell>
        <mxCell id="wteRJV7HcXGWu6liqBL--18" value="Bendereço" style="ellipse;whiteSpace=wrap;html=1;" vertex="1" parent="1">
          <mxGeometry x="434" y="20" width="80" height="30" as="geometry" />
        </mxCell>
        <mxCell id="wteRJV7HcXGWu6liqBL--29" style="edgeStyle=orthogonalEdgeStyle;rounded=0;orthogonalLoop=1;jettySize=auto;html=1;entryX=0.75;entryY=0;entryDx=0;entryDy=0;" edge="1" parent="1" source="wteRJV7HcXGWu6liqBL--21" target="wteRJV7HcXGWu6liqBL--3">
          <mxGeometry relative="1" as="geometry" />
        </mxCell>
        <mxCell id="wteRJV7HcXGWu6liqBL--21" value="Cendereço" style="ellipse;whiteSpace=wrap;html=1;" vertex="1" parent="1">
          <mxGeometry x="630" y="150" width="80" height="30" as="geometry" />
        </mxCell>
        <mxCell id="wteRJV7HcXGWu6liqBL--28" style="edgeStyle=orthogonalEdgeStyle;rounded=0;orthogonalLoop=1;jettySize=auto;html=1;" edge="1" parent="1" source="wteRJV7HcXGWu6liqBL--22" target="wteRJV7HcXGWu6liqBL--3">
          <mxGeometry relative="1" as="geometry" />
        </mxCell>
        <mxCell id="wteRJV7HcXGWu6liqBL--22" value="Cnome" style="ellipse;whiteSpace=wrap;html=1;" vertex="1" parent="1">
          <mxGeometry x="470" y="170" width="80" height="30" as="geometry" />
        </mxCell>
        <mxCell id="wteRJV7HcXGWu6liqBL--23" value="U" style="ellipse;whiteSpace=wrap;html=1;aspect=fixed;" vertex="1" parent="1">
          <mxGeometry x="320" y="290" width="50" height="50" as="geometry" />
        </mxCell>
        <mxCell id="wteRJV7HcXGWu6liqBL--31" style="edgeStyle=orthogonalEdgeStyle;rounded=0;orthogonalLoop=1;jettySize=auto;html=1;entryX=0.5;entryY=1;entryDx=0;entryDy=0;" edge="1" parent="1" source="wteRJV7HcXGWu6liqBL--30" target="wteRJV7HcXGWu6liqBL--23">
          <mxGeometry relative="1" as="geometry" />
        </mxCell>
        <mxCell id="wteRJV7HcXGWu6liqBL--30" value="Owner" style="rounded=0;whiteSpace=wrap;html=1;" vertex="1" parent="1">
          <mxGeometry x="300" y="450" width="90" height="30" as="geometry" />
        </mxCell>
      </root>
    </mxGraphModel>
  </diagram>
</mxfile>
